<?xml version="1.0" standalone="no"?>
<!DOCTYPE svg PUBLIC "-//W3C//DTD SVG 20010904//EN"
 "http://www.w3.org/TR/2001/REC-SVG-20010904/DTD/svg10.dtd">
<svg version="1.0" xmlns="http://www.w3.org/2000/svg"
 width="214.000000pt" height="213.000000pt" viewBox="0 0 214.000000 213.000000"
 preserveAspectRatio="xMidYMid meet">

<g transform="translate(0.000000,213.000000) scale(0.100000,-0.100000)"
fill="#000000" stroke="none">
<path d="M1307 1925 c-129 -25 -259 -86 -365 -173 -92 -75 -190 -238 -213
-356 -11 -50 -19 -64 -62 -105 -66 -62 -128 -149 -176 -252 -54 -113 -72 -183
-78 -314 -9 -192 36 -314 163 -443 40 -39 69 -74 65 -76 -3 -2 -24 -7 -46 -11
-66 -12 -105 -32 -105 -54 0 -11 4 -22 9 -25 4 -3 58 1 120 9 61 8 151 14 199
12 l87 -2 3 26 c2 21 -4 31 -32 47 -46 27 -64 57 -73 121 -9 60 -31 84 -57 62
-25 -21 -31 -77 -12 -123 9 -23 14 -44 11 -46 -8 -8 -90 46 -127 85 -166 172
-185 462 -47 735 35 68 92 150 133 187 22 21 26 22 26 7 0 -9 11 -38 24 -64
101 -199 410 -265 592 -127 44 33 84 117 84 175 0 61 -49 142 -112 185 -101
70 -281 84 -420 32 -73 -26 -79 -23 -56 30 117 270 425 431 781 408 102 -7
109 -6 105 11 -8 42 -275 66 -421 39z m-102 -530 c75 -20 119 -47 150 -93 54
-79 18 -180 -82 -229 -158 -77 -398 7 -448 158 -23 70 -18 89 35 119 100 55
237 73 345 45z"/>
</g>
</svg>
